<?xml version="1.0" standalone="yes"?>
<svg xmlns="http://www.w3.org/2000/svg" width="9" height="14">
<path style="fill:#deeccf; stroke:none;" d="M0 0L1 1L0 0z"/>
<path style="fill:#cfdfc3; stroke:none;" d="M1 0L2 1L1 0z"/>
<path style="fill:#fdfefc; stroke:none;" d="M2 0C6.23093 6.2147 6.23093 7.7853 2 14L9 14L9 0L2 0z"/>
<path style="fill:#afc89d; stroke:none;" d="M0 1L1 2L0 1z"/>
<path style="fill:#9ab97b; stroke:none;" d="M1 1C3.00698 5.99815 3.00698 8.00185 1 13C6.72435 8.81718 6.72435 5.18282 1 1z"/>
<path style="fill:#afc89d; stroke:none;" d="M2 1L3 2L2 1z"/>
<path style="fill:#cfdfc3; stroke:none;" d="M0 2L5 7L0 2z"/>
<path style="fill:#afc89d; stroke:none;" d="M3 2L4 3L3 2z"/>
<path style="fill:#fdfefc; stroke:none;" d="M0 3L0 11C3.42934 8.03365 3.42934 5.96635 0 3z"/>
<path style="fill:#afc89d; stroke:none;" d="M4 3L5 4L4 3M5 4L6 5L5 4M6 5L7 6L6 5M7.33333 6.66667L7.66667 7.33333L7.33333 6.66667z"/>
<path style="fill:#deeccf; stroke:none;" d="M4 7L5 8L4 7M3 8L4 9L3 8z"/>
<path style="fill:#afc89d; stroke:none;" d="M6 8L7 9L6 8z"/>
<path style="fill:#deeccf; stroke:none;" d="M2 9L3 10L2 9z"/>
<path style="fill:#afc89d; stroke:none;" d="M5 9L6 10L5 9z"/>
<path style="fill:#deeccf; stroke:none;" d="M1 10L2 11L1 10z"/>
<path style="fill:#afc89d; stroke:none;" d="M4 10L5 11L4 10z"/>
<path style="fill:#deeccf; stroke:none;" d="M0 11L1 12L0 11z"/>
<path style="fill:#afc89d; stroke:none;" d="M3 11L4 12L3 11M0 12L1 13L0 12M2 12L3 13L2 12z"/>
<path style="fill:#deeccf; stroke:none;" d="M0 13L1 14L0 13z"/>
<path style="fill:#cfdfc3; stroke:none;" d="M1 13L2 14L1 13z"/>
</svg>
